<?xml version="1.0" encoding="UTF-8" standalone="no"?>
<!DOCTYPE svg PUBLIC "-//W3C//DTD SVG 1.1//EN" "http://www.w3.org/Graphics/SVG/1.1/DTD/svg11.dtd">
<svg width="100%" height="100%" viewBox="0 0 3508 886" version="1.1" xmlns="http://www.w3.org/2000/svg" xmlns:xlink="http://www.w3.org/1999/xlink" xml:space="preserve" xmlns:serif="http://www.serif.com/" style="fill-rule:evenodd;clip-rule:evenodd;stroke-linejoin:round;stroke-miterlimit:2;">
    <rect id="Artboard1" x="0" y="0" width="3507.87" height="885.827" style="fill:none;"/>
    <g id="Artboard11" serif:id="Artboard1">
        <g transform="matrix(1.80008,0,0,1.80008,-579.869,-747.458)">
            <path d="M911.43,435L466,435L466,813.637C466,850.525 495.904,880.43 532.793,880.43L911.43,880.43L911.43,435ZM901.496,597.358C875.073,597.125 751.937,601.138 659.438,793.736C659.438,793.736 638.799,846.809 573.609,870.496L645.427,870.496C684.186,848.242 696.859,815.459 696.859,815.459C765.341,641.917 878.418,633.441 901.496,633.582L901.496,597.358ZM901.496,791.272L901.496,870.496L850.707,870.496C852.872,836.976 872.214,807.148 901.496,791.272ZM901.496,741.615L901.496,778.164C865.334,795.167 841.24,830.546 838.94,870.496L803.562,870.496C809.827,812.8 847.549,763.263 901.496,741.615ZM901.496,695.519C810.592,700.142 774.833,813.456 774.833,813.456C764.758,844.221 746.618,862.076 735.768,870.496L792.039,870.496C798.505,806.57 840.964,751.794 901.496,729.381L901.496,695.519ZM901.496,646.407C777.712,648.533 713.578,809.88 713.578,809.88C700.476,842.338 680.142,861.595 668.648,870.496L711.033,870.496C750.922,852.125 761.385,811.952 761.385,811.952C805.359,691.295 880.283,682.763 901.496,682.88L901.496,646.407ZM901.496,455.241L501.03,855.707C506.722,859.803 513.022,862.627 516.764,863.845C544.414,871.518 615.632,853.274 645.322,794.257C665.631,753.886 737.336,593.41 901.496,584.256L901.496,455.241ZM892.329,444.933L762.695,444.933C758.402,590.901 643.109,664.711 560.141,697.575C480.944,735.826 477.173,805.325 482.338,827.51C483.996,834.633 487.078,840.581 491.234,846.029L892.329,444.933ZM749.533,444.933L713.145,444.933C713.287,468.012 704.772,581.089 530.441,649.571C530.441,649.571 498.27,661.951 475.933,699.668L475.933,768.69C499.261,705.117 559.063,684.645 559.063,684.645C747.905,600.767 749.768,471.357 749.533,444.933ZM700.262,444.933C698.126,568.717 536.046,632.852 536.046,632.852C504.358,645.584 485.195,665.149 475.933,676.791L475.933,633.757C494.718,595.22 533.965,585.045 533.965,585.045C655.17,541.071 663.741,466.146 663.623,444.933L700.262,444.933ZM650.927,444.933L616.911,444.933C594.489,505.219 539.817,547.581 475.933,554.31L475.933,609.676C484.688,598.743 502.466,581.373 532.453,571.597C532.453,571.597 646.283,535.838 650.927,444.933ZM604.621,444.933L567.906,444.933C550.937,480.859 515.75,504.874 475.933,507.442L475.933,542.781C533.554,536.269 582.976,498.639 604.621,444.933ZM475.933,444.933L475.933,495.67C509.283,493.262 538.91,473.993 554.738,444.933L475.933,444.933Z" style="fill:white;"/>
        </g>
        <g transform="matrix(9.65468,0,0,9.65468,-17994.7,-7631.63)">
            <text x="1995.84px" y="848.23px" style="font-family:'Champagne&Limousines', 'Champagne & Limousines', sans-serif;font-size:50px;fill:white;">IMPULSSO</text>
        </g>
    </g>
</svg>
