<?xml version="1.0" encoding="UTF-8" standalone="no"?><!DOCTYPE svg PUBLIC "-//W3C//DTD SVG 1.1//EN" "http://www.w3.org/Graphics/SVG/1.1/DTD/svg11.dtd"><svg width="100%" height="100%" viewBox="0 0 3508 1985" version="1.1" xmlns="http://www.w3.org/2000/svg" xmlns:xlink="http://www.w3.org/1999/xlink" xml:space="preserve" xmlns:serif="http://www.serif.com/" style="fill-rule:evenodd;clip-rule:evenodd;stroke-linejoin:round;stroke-miterlimit:2;"><rect id="Artboard1" x="0" y="0" width="3507.87" height="1984.25" style="fill:none;"/><g id="Artboard11" serif:id="Artboard1"><path d="M2269.6,158.221l-982.142,0l0,834.868c0,81.337 65.937,147.274 147.275,147.274l834.867,0l0,-982.142Zm-21.902,357.99c-58.262,-0.514 -329.768,8.333 -533.723,433c0,-0 -45.507,117.022 -189.245,169.25l158.354,0c85.459,-49.069 113.402,-121.353 113.402,-121.353c150.998,-382.648 400.326,-401.337 451.212,-401.026l0,-79.871Zm0,427.566l0,174.684l-111.988,0c4.774,-73.91 47.422,-139.678 111.988,-174.684Zm0,-109.49l0,80.588c-79.736,37.491 -132.861,115.497 -137.933,203.586l-78.005,0c13.813,-127.216 96.987,-236.442 215.938,-284.174Zm0,-101.639c-200.438,10.193 -279.284,260.043 -279.284,260.043c-22.214,67.834 -62.213,107.203 -86.137,125.77l124.075,0c14.258,-140.954 107.876,-261.73 241.346,-311.151l0,-74.662Zm0,-108.288c-272.936,4.687 -414.348,360.446 -414.348,360.446c-28.887,71.568 -73.724,114.029 -99.067,133.655l93.456,0c87.953,-40.508 111.022,-129.087 111.022,-129.087c96.961,-266.04 262.164,-284.852 308.937,-284.593l0,-80.421Zm0,-421.508l-883,883c12.549,9.03 26.44,15.257 34.693,17.944c60.965,16.918 217.996,-23.308 283.46,-153.438c44.781,-89.016 202.884,-442.854 564.847,-463.037l0,-284.469Zm-20.214,-22.728l-285.833,-0c-9.466,321.849 -263.68,484.594 -446.619,557.057c-174.624,84.342 -182.939,237.583 -171.55,286.499c3.656,15.705 10.453,28.82 19.615,40.832l884.387,-884.388Zm-314.854,-0l-80.234,-0c0.313,50.886 -18.462,300.213 -402.85,451.211c0,0 -70.934,27.298 -120.185,110.462l-0,152.188c51.437,-140.174 183.295,-185.314 183.295,-185.314c416.383,-184.945 420.49,-470.285 419.974,-528.547Zm-108.641,-0c-4.709,272.935 -362.084,414.348 -362.084,414.348c-69.87,28.074 -112.122,71.211 -132.544,96.882l-0,-94.887c41.418,-84.971 127.955,-107.407 127.955,-107.407c267.25,-96.96 286.147,-262.163 285.887,-308.936l80.786,-0Zm-108.78,-0l-75.002,-0c-49.439,132.927 -169.988,226.331 -310.846,241.169l-0,122.077c19.304,-24.107 58.502,-62.407 124.622,-83.962c0,0 250.986,-78.846 261.226,-279.284Zm-102.101,-0l-80.955,-0c-37.415,79.214 -114.999,132.165 -202.792,137.827l-0,77.921c127.05,-14.359 236.021,-97.332 283.747,-215.748Zm-283.747,-0l-0,111.871c73.533,-5.31 138.859,-47.796 173.759,-111.871l-173.759,-0Z" style="fill:#fff;"/><rect x="644.099" y="1320.24" width="23.098" height="408.253" style="fill:#fff;fill-rule:nonzero;"/><path d="M1091.91,1320.24l0,408.254l-23.098,-0l0,-383.424l-157.931,207.014l-158.22,-207.014l0,383.424l-23.098,-0l0,-408.254l33.492,0l147.826,193.444l147.537,-193.444l33.492,0Z" style="fill:#fff;fill-rule:nonzero;"/><path d="M1174.19,1587.02l-0,141.474l-23.098,-0l0,-408.254l107.116,0c31.182,4.235 57.648,17.227 79.399,38.978c25.985,26.177 38.977,57.552 38.977,94.123c0,36.957 -12.992,68.475 -38.977,94.557c-25.985,26.081 -57.36,39.122 -94.124,39.122l-69.293,-0Zm-0,-243.393l-0,220.006l69.293,0c30.22,0 56.109,-10.731 77.667,-32.193c21.558,-21.461 32.337,-47.494 32.337,-78.099c-0,-30.412 -10.779,-56.301 -32.337,-77.666c-21.558,-21.366 -47.447,-32.048 -77.667,-32.048l-69.293,-0Z" style="fill:#fff;fill-rule:nonzero;"/><path d="M1671.37,1320.24l23.098,0l-0,293.342c-4.235,31.182 -17.227,57.648 -38.978,79.399c-25.985,25.985 -57.359,38.977 -94.123,38.977c-36.957,0 -68.428,-12.992 -94.413,-38.977c-25.985,-25.985 -38.977,-57.36 -38.977,-94.124l-0,-278.617l23.098,0l-0,278.617c-0,30.22 10.779,56.109 32.337,77.666c21.558,21.558 47.543,32.337 77.955,32.337c30.412,0 56.349,-10.779 77.81,-32.337c21.462,-21.557 32.193,-47.446 32.193,-77.666l-0,-278.617Z" style="fill:#fff;fill-rule:nonzero;"/><path d="M1759.14,1728.5l0,-408.254l23.098,0l0,385.156l155.622,-0l-0,23.098l-178.72,-0Z" style="fill:#fff;fill-rule:nonzero;"/><path d="M2095.8,1502.43c-29.065,-9.624 -52.018,-22.857 -68.86,-39.699c-16.843,-16.843 -25.264,-37.294 -25.264,-61.354c0,-23.483 8.421,-43.693 25.264,-60.632c16.842,-16.938 37.293,-25.407 61.353,-25.407c23.675,-0 44.078,8.469 61.209,25.407c9.239,9.047 15.687,19.152 19.345,30.316l-20.788,8.084c-3.08,-8.276 -8.085,-15.879 -15.014,-22.809c-12.319,-12.318 -27.236,-18.478 -44.752,-18.478c-17.516,0 -32.481,6.16 -44.896,18.478c-12.415,12.319 -18.623,27.333 -18.623,45.041c0,17.516 6.159,32.529 18.478,45.041c11.549,11.356 27.525,21.75 47.928,31.182c32.722,10.586 60.247,27.043 82.575,49.371c23.483,23.483 35.224,51.874 35.224,85.173c-0,33.492 -11.79,62.076 -35.369,85.751c-23.579,23.675 -52.018,35.513 -85.317,35.513c-33.492,-0 -61.979,-11.934 -85.462,-35.802c-19.055,-18.863 -30.412,-40.806 -34.069,-65.828l21.654,-7.796c2.31,22.135 11.741,41.384 28.295,57.744c19.248,19.249 42.442,28.873 69.582,28.873c27.14,-0 50.334,-9.624 69.582,-28.873c19.248,-19.248 28.872,-42.442 28.872,-69.582c0,-26.947 -9.624,-50.045 -28.872,-69.293c-16.938,-16.938 -37.63,-30.412 -62.075,-40.421Z" style="fill:#fff;fill-rule:nonzero;"/><path d="M2367.77,1502.43c-29.064,-9.624 -52.018,-22.857 -68.86,-39.699c-16.842,-16.843 -25.263,-37.294 -25.263,-61.354c-0,-23.483 8.421,-43.693 25.263,-60.632c16.842,-16.938 37.293,-25.407 61.354,-25.407c23.675,-0 44.078,8.469 61.209,25.407c9.239,9.047 15.687,19.152 19.344,30.316l-20.788,8.084c-3.08,-8.276 -8.084,-15.879 -15.014,-22.809c-12.318,-12.318 -27.236,-18.478 -44.751,-18.478c-17.516,0 -32.482,6.16 -44.897,18.478c-12.415,12.319 -18.622,27.333 -18.622,45.041c-0,17.516 6.159,32.529 18.478,45.041c11.549,11.356 27.525,21.75 47.928,31.182c32.722,10.586 60.246,27.043 82.574,49.371c23.483,23.483 35.224,51.874 35.224,85.173c0,33.492 -11.789,62.076 -35.368,85.751c-23.579,23.675 -52.018,35.513 -85.317,35.513c-33.492,-0 -61.98,-11.934 -85.462,-35.802c-19.056,-18.863 -30.412,-40.806 -34.07,-65.828l21.655,-7.796c2.309,22.135 11.741,41.384 28.294,57.744c19.249,19.249 42.443,28.873 69.583,28.873c27.139,-0 50.333,-9.624 69.582,-28.873c19.248,-19.248 28.872,-42.442 28.872,-69.582c-0,-26.947 -9.624,-50.045 -28.872,-69.293c-16.939,-16.938 -37.631,-30.412 -62.076,-40.421Z" style="fill:#fff;fill-rule:nonzero;"/><path d="M2724.05,1314.47c57.937,-0 107.356,20.451 148.259,61.353c40.902,40.902 61.353,90.226 61.353,147.97c0,57.937 -20.451,107.357 -61.353,148.259c-40.903,40.903 -90.322,61.354 -148.259,61.354c-57.745,-0 -107.068,-20.451 -147.97,-61.354c-40.903,-40.902 -61.354,-90.322 -61.354,-148.259c-0,-57.744 20.451,-107.068 61.354,-147.97c40.902,-40.902 90.225,-61.353 147.97,-61.353Zm-0,23.386c-51.2,0 -94.99,18.19 -131.369,54.569c-36.379,36.379 -54.568,80.168 -54.568,131.368c-0,51.393 18.189,95.279 54.568,131.658c36.379,36.379 80.169,54.568 131.369,54.568c51.392,0 95.278,-18.189 131.657,-54.568c36.379,-36.379 54.569,-80.265 54.569,-131.658c-0,-51.2 -18.19,-94.989 -54.569,-131.368c-36.379,-36.379 -80.265,-54.569 -131.657,-54.569Z" style="fill:#fff;fill-rule:nonzero;"/></g></svg>